<svg width="56" height="56" viewBox="0 0 56 56" fill="none" xmlns="http://www.w3.org/2000/svg">
<circle cx="28" cy="28.0001" r="28" fill="#E3DAF9"/>
<path d="M27 25.0001H29V23.0001H27V25.0001ZM28 36.0001C23.59 36.0001 20 32.4101 20 28.0001C20 23.5901 23.59 20.0001 28 20.0001C32.41 20.0001 36 23.5901 36 28.0001C36 32.4101 32.41 36.0001 28 36.0001ZM28 18.0001C26.6868 18.0001 25.3864 18.2587 24.1732 18.7613C22.9599 19.2638 21.8575 20.0004 20.9289 20.929C19.0536 22.8044 18 25.3479 18 28.0001C18 30.6523 19.0536 33.1958 20.9289 35.0712C21.8575 35.9997 22.9599 36.7363 24.1732 37.2389C25.3864 37.7414 26.6868 38.0001 28 38.0001C30.6522 38.0001 33.1957 36.9465 35.0711 35.0712C36.9464 33.1958 38 30.6523 38 28.0001C38 26.6869 37.7413 25.3865 37.2388 24.1733C36.7362 22.96 35.9997 21.8576 35.0711 20.929C34.1425 20.0004 33.0401 19.2638 31.8268 18.7613C30.6136 18.2587 29.3132 18.0001 28 18.0001ZM27 33.0001H29V27.0001H27V33.0001Z" fill="#6E41E2"/>
</svg>
