<svg width="56" height="56" viewBox="0 0 97 96" fill="none" xmlns="http://www.w3.org/2000/svg">
<g clip-path="url(#clip0_2688_4675)">
<circle opacity="0.12" cx="48.5" cy="48.0001" r="48" fill="#FFD912"/>
<path fill-rule="evenodd" clip-rule="evenodd" d="M48.5 30.0001C46.8431 30.0001 45.5 31.3432 45.5 33.0001V55.0001C45.5 56.6569 46.8431 58.0001 48.5 58.0001C50.1569 58.0001 51.5 56.6569 51.5 55.0001V33.0001C51.5 31.3432 50.1569 30.0001 48.5 30.0001ZM48.5 66.0001C46.8431 66.0001 45.5 64.6569 45.5 63.0001C45.5 61.3432 46.8431 60.0001 48.5 60.0001C50.1569 60.0001 51.5 61.3432 51.5 63.0001C51.5 64.6569 50.1569 66.0001 48.5 66.0001Z" fill="#FFD912"/>
</g>
<defs>
<clipPath id="clip0_2688_4675">
<rect width="96" height="96" fill="white" transform="translate(0.5 9.15527e-05)"/>
</clipPath>
</defs>
</svg>
