<svg width="56" height="56" viewBox="0 0 56 56" fill="none" xmlns="http://www.w3.org/2000/svg">
<circle cx="28" cy="28.0001" r="28" fill="#F9E3E3"/>
<path fill-rule="evenodd" clip-rule="evenodd" d="M22.3352 32.0463C21.8883 32.4932 21.8883 33.2178 22.3352 33.6648C22.7821 34.1117 23.5068 34.1117 23.9537 33.6648L28 29.6184L32.0465 33.6649C32.4935 34.1118 33.2181 34.1118 33.665 33.6649C34.112 33.218 34.112 32.4933 33.665 32.0464L29.6185 27.9999L33.6647 23.9538C34.1116 23.5068 34.1116 22.7822 33.6647 22.3353C33.2178 21.8883 32.4931 21.8883 32.0462 22.3353L28 26.3814L23.954 22.3354C23.5071 21.8885 22.7825 21.8885 22.3355 22.3354C21.8886 22.7824 21.8886 23.507 22.3355 23.9539L26.3815 27.9999L22.3352 32.0463Z" fill="#DB524E"/>
</svg>
